<?xml version="1.0" standalone="no"?>
<!DOCTYPE svg PUBLIC "-//W3C//DTD SVG 20010904//EN"
 "http://www.w3.org/TR/2001/REC-SVG-20010904/DTD/svg10.dtd">
<svg version="1.0" xmlns="http://www.w3.org/2000/svg"
 width="300.000000pt" height="300.000000pt" viewBox="0 0 300.000000 300.000000"
 preserveAspectRatio="xMidYMid meet">
<metadata>
Created by potrace 1.10, written by Peter Selinger 2001-2011
</metadata>
<g transform="translate(0.000000,300.000000) scale(0.100000,-0.100000)"
fill="#000000" stroke="none">
<path d="M1185 2610 c-8 -34 -18 -50 -44 -67 -19 -13 -29 -23 -23 -23 6 0 18
-3 26 -6 11 -4 15 -2 11 8 -3 8 5 24 18 37 l25 22 21 -27 21 -26 -23 -28 c-15
-19 -26 -24 -34 -18 -9 7 -9 2 0 -22 l12 -31 7 27 c9 36 37 64 62 64 18 0 16
3 -10 19 -38 23 -46 35 -54 80 l-5 35 -10 -44z"/>
<path d="M2151 2498 c-1 -9 -8 -21 -16 -25 -13 -7 -12 -11 4 -25 18 -15 21
-15 37 3 9 10 13 19 7 19 -5 0 -15 10 -21 23 -8 17 -11 18 -11 5z"/>
<path d="M1610 2420 c-41 -4 -92 -14 -113 -24 -69 -34 -117 -123 -117 -217 0
-40 -4 -50 -22 -60 -22 -12 -22 -12 -2 -21 14 -7 24 -26 32 -66 24 -114 81
-172 170 -172 36 0 50 6 77 33 37 37 53 83 62 180 5 56 9 67 24 67 11 0 19 5
19 10 0 17 -172 8 -178 -9 -3 -10 1 -12 16 -9 40 11 47 -5 47 -110 0 -104 -10
-132 -46 -132 -67 0 -100 262 -53 418 16 54 40 82 70 82 28 0 44 -27 44 -74 0
-25 4 -36 15 -36 10 0 15 10 15 33 0 17 5 49 11 70 6 22 9 40 7 41 -2 1 -37
-1 -78 -4z m-129 -150 c-15 -71 -13 -202 4 -284 8 -38 13 -71 11 -74 -2 -2
-17 13 -33 32 -41 53 -64 152 -52 229 11 68 32 122 57 150 22 25 26 8 13 -53z"/>
<path d="M1885 2422 c-28 -6 -65 -42 -65 -64 0 -25 7 -23 37 12 13 17 34 30
45 30 18 0 19 -4 14 -35 -4 -19 -24 -83 -44 -142 -31 -91 -41 -109 -59 -111
-26 -4 -27 -6 -11 -31 9 -15 8 -29 -7 -67 -32 -88 -46 -111 -73 -124 -26 -13
-25 -14 38 -21 70 -9 85 -5 56 16 -18 14 -18 17 11 97 34 92 29 89 131 72 l32
-5 0 -74 c0 -89 -4 -102 -42 -121 -16 -9 -28 -18 -25 -20 2 -3 57 -7 121 -8
64 -2 122 -9 129 -15 27 -22 88 -41 133 -41 94 0 142 74 130 199 -5 50 -4 71
5 77 9 5 6 10 -10 16 -25 9 -91 141 -91 182 0 46 73 63 111 25 20 -20 21 -31
3 -91 -9 -30 13 -20 26 11 6 16 20 37 31 47 30 27 23 39 -33 59 -100 36 -173
21 -203 -40 -19 -42 -19 -78 1 -144 11 -38 12 -57 5 -64 -16 -16 -14 -25 8
-32 39 -12 67 -159 38 -199 -23 -32 -117 -17 -117 20 0 8 7 31 15 51 31 74 14
85 -29 18 -27 -43 -52 -65 -75 -65 -7 0 -11 34 -11 93 0 88 2 95 22 104 l23
10 -23 12 c-20 11 -22 19 -22 89 0 138 11 214 31 219 10 3 20 12 23 20 5 12 0
13 -24 8 -17 -4 -63 0 -103 8 -98 21 -129 25 -152 19z m105 -190 l0 -159 -57
9 c-32 5 -59 10 -60 12 -2 2 19 63 47 137 28 74 52 140 55 147 12 32 15 0 15
-146z m72 126 c14 -11 17 -38 18 -168 4 -275 2 -317 -15 -324 -41 -15 -44 -2
-40 167 2 89 4 201 4 250 1 48 5 87 9 87 5 0 15 -6 24 -12z m335 -389 c6 -78
-10 -127 -20 -62 -6 37 -25 87 -46 123 -13 22 -33 139 -26 151 4 5 25 -25 47
-68 30 -60 41 -93 45 -144z"/>
<path d="M1145 2386 c-40 -6 -68 -15 -65 -21 3 -5 10 -9 17 -9 16 2 19 -8 39
-145 16 -106 16 -115 1 -126 -21 -15 -22 -25 -3 -25 21 0 24 -7 37 -109 11
-85 10 -93 -7 -113 l-19 -21 35 7 c19 4 55 9 80 12 69 9 78 13 58 28 -10 8
-22 46 -33 106 -16 86 -16 94 -1 105 20 15 21 25 2 25 -8 0 -18 4 -21 10 -5 8
-35 224 -35 251 0 4 9 9 20 12 30 8 24 27 -7 26 -16 -1 -59 -6 -98 -13z m58
-111 c4 -39 14 -101 21 -140 22 -108 38 -247 29 -256 -28 -28 -51 54 -73 252
-5 48 -12 109 -16 135 -10 78 -8 86 14 82 13 -2 19 -18 25 -73z"/>
<path d="M770 2314 c-41 -13 -83 -24 -93 -24 -11 0 -17 -6 -14 -12 2 -7 12
-13 23 -13 21 0 29 -19 66 -160 18 -70 20 -90 10 -105 -16 -25 -15 -30 3 -30
20 0 29 -22 51 -113 17 -75 17 -78 -1 -91 -39 -28 6 -23 140 16 77 22 148 44
157 49 24 13 26 99 3 99 -8 0 -15 -7 -15 -15 0 -35 -25 -65 -71 -84 -26 -12
-52 -21 -58 -21 -10 0 -61 148 -61 179 0 9 6 23 12 29 10 10 8 14 -10 18 -15
4 -25 18 -32 43 -51 192 -57 231 -36 231 9 0 16 7 16 15 0 18 2 19 -90 -11z
m50 -138 c11 -49 28 -106 37 -125 9 -20 17 -49 19 -66 3 -16 13 -61 24 -100
20 -71 17 -90 -16 -83 -14 2 -24 23 -39 78 -11 41 -23 80 -27 86 -5 7 -10 32
-13 55 -3 24 -17 83 -30 131 -14 48 -25 93 -25 102 0 15 30 27 41 17 4 -3 17
-46 29 -95z"/>
<path d="M1886 1944 c-5 -12 -2 -15 10 -10 8 3 22 6 30 6 9 0 12 5 9 10 -10
16 -42 12 -49 -6z"/>
<path d="M691 1828 c-1 -30 -25 -58 -49 -58 -12 -1 -8 -6 10 -16 17 -9 31 -27
36 -47 l8 -32 7 32 c3 18 16 37 27 43 21 11 21 11 -4 31 -14 11 -27 32 -29 47
l-4 27 -2 -27z m22 -74 c-6 -16 -29 -19 -38 -4 -4 6 -1 17 5 26 15 18 42 0 33
-22z"/>
<path d="M1567 1800 c-9 -11 -13 -20 -8 -20 5 0 15 -2 23 -5 8 -3 13 3 14 20
2 30 -6 32 -29 5z"/>
<path d="M1495 1767 c-17 -13 -16 -14 6 -12 30 3 49 -12 49 -36 0 -19 17 -35
28 -24 3 3 0 10 -7 14 -10 6 -10 10 -2 16 7 4 18 1 26 -5 8 -6 20 -8 27 -4 7
4 25 7 40 6 32 -3 35 3 13 24 -8 9 -15 12 -15 8 0 -4 -9 1 -20 11 -11 10 -23
15 -27 12 -3 -4 0 -7 8 -8 8 0 -4 -7 -26 -15 -38 -14 -41 -14 -57 6 -19 24
-19 24 -43 7z"/>
<path d="M1710 1769 c0 -5 -8 -9 -17 -9 -15 0 -14 -2 3 -17 30 -27 124 -76
124 -65 0 5 -16 17 -35 26 -44 21 -46 38 -3 25 45 -12 46 -12 46 16 0 26 -22
35 -31 13 -4 -10 -8 -9 -16 2 -10 13 -12 13 -21 0 -5 -8 -10 -10 -10 -4 0 7
-9 14 -20 17 -11 3 -20 1 -20 -4z"/>
<path d="M1425 1730 c-3 -5 -3 -15 1 -22 4 -7 3 -8 -4 -4 -7 4 -12 2 -12 -4 0
-6 -4 -9 -9 -5 -5 3 -13 1 -16 -5 -4 -6 -21 -8 -40 -4 -28 5 -37 2 -56 -20
-12 -14 -31 -26 -41 -26 -10 0 -18 -7 -18 -15 0 -23 34 -18 59 9 16 17 42 27
96 36 52 9 72 16 69 25 -3 7 -1 16 5 20 7 3 11 -2 11 -14 0 -16 9 -21 45 -27
25 -3 47 -5 49 -3 2 2 -8 15 -22 29 -13 14 -21 18 -18 10 4 -8 0 -6 -9 5 -12
16 -18 17 -24 7 -7 -11 -9 -11 -14 2 -7 18 -42 22 -52 6z"/>
<path d="M1866 1695 c6 -14 3 -16 -17 -10 -17 4 -20 3 -10 -3 7 -5 11 -14 7
-20 -3 -5 5 -13 19 -16 25 -6 29 -24 10 -39 -6 -4 -1 -7 10 -5 15 2 22 -5 30
-29 9 -31 25 -45 25 -23 0 7 6 7 19 0 35 -18 45 -11 21 15 -13 14 -30 25 -37
25 -14 0 -45 61 -41 81 2 6 -7 18 -20 26 -21 15 -22 14 -16 -2z"/>
<path d="M1650 1660 c0 -11 53 -40 75 -40 8 0 15 5 15 11 0 6 -6 9 -13 6 -7
-3 -19 4 -25 14 -13 20 -52 27 -52 9z"/>
<path d="M1143 1653 c-7 -3 -13 -11 -13 -19 0 -9 -12 -14 -37 -14 -31 -1 -35
-3 -20 -11 9 -6 25 -8 35 -5 22 7 49 -14 61 -47 6 -15 17 -26 28 -25 10 0 27
-3 38 -7 19 -7 19 -7 1 7 -10 8 -16 20 -12 26 4 7 1 12 -8 12 -9 0 -16 4 -16
9 0 5 -9 13 -20 16 -15 5 -19 12 -14 30 6 24 -3 35 -23 28z"/>
<path d="M1401 1646 c-9 -11 -6 -15 20 -18 17 -3 42 -3 55 0 20 3 22 7 13 18
-14 17 -51 18 -68 2 -11 -10 -13 -10 -7 0 10 16 1 15 -13 -2z"/>
<path d="M1770 1642 c0 -5 10 -13 23 -17 20 -6 20 -8 3 -12 -15 -4 -14 -8 13
-24 35 -21 51 -24 51 -9 0 6 -9 10 -20 10 -11 0 -20 5 -20 11 0 5 5 7 10 4 6
-3 10 -2 10 3 0 7 -17 18 -62 40 -5 2 -8 -1 -8 -6z"/>
<path d="M1482 1604 c-13 -9 -31 -14 -42 -11 -10 2 -24 0 -31 -5 -10 -7 -9 -8
5 -4 16 5 17 4 6 -9 -10 -12 -9 -16 4 -21 11 -4 29 6 53 30 39 39 41 45 5 20z"/>
<path d="M916 1589 c-21 -17 -30 -18 -41 -9 -8 7 -20 10 -27 8 -8 -3 0 -11 17
-20 26 -14 34 -14 55 -2 43 23 60 18 61 -18 l1 -33 10 28 c7 21 7 32 -3 44
-12 14 -11 15 11 9 19 -6 21 -5 10 3 -24 17 -65 13 -94 -10z"/>
<path d="M1282 1581 l-33 -28 25 -5 c18 -4 26 -1 26 8 0 8 9 13 22 11 14 -1
23 4 26 15 2 13 -2 15 -19 11 -15 -4 -20 -3 -15 5 11 18 5 14 -32 -17z"/>
<path d="M2249 1547 c-16 -70 -15 -85 1 -41 6 14 14 22 20 19 11 -7 11 13 1
60 -5 26 -8 21 -22 -38z"/>
<path d="M1486 1564 c-15 -21 -16 -30 -7 -51 10 -22 9 -25 -4 -19 -12 4 -16 1
-13 -16 4 -26 28 -37 28 -12 0 10 8 26 17 36 13 15 14 21 5 27 -9 5 -11 17 -6
34 8 33 4 33 -20 1z"/>
<path d="M1723 1583 c-17 -6 -16 -23 1 -23 7 0 19 -7 26 -15 7 -9 24 -14 38
-13 14 2 27 -3 29 -9 3 -9 -4 -11 -28 -6 -23 4 -30 3 -25 -5 11 -18 73 -15 80
4 14 36 -76 86 -121 67z"/>
<path d="M1127 1540 c-23 -23 -22 -30 7 -30 30 0 42 16 24 33 -11 11 -16 11
-31 -3z"/>
<path d="M1860 1548 c0 -9 -3 -23 -6 -32 -3 -9 -1 -16 6 -16 6 0 8 5 4 12 -4
6 -3 8 4 4 9 -5 10 -44 2 -66 -2 -3 -2 -8 -2 -11 1 -4 -13 -10 -31 -13 -24 -5
-28 -9 -18 -16 12 -7 13 -11 1 -24 -7 -9 -10 -19 -6 -23 3 -3 6 -1 6 5 0 7 3
11 8 11 41 -7 62 30 62 106 0 40 -29 102 -30 63z"/>
<path d="M1380 1515 c0 -13 -4 -14 -20 -5 -14 8 -26 8 -40 0 -30 -16 -24 -23
13 -17 17 2 41 0 51 -5 15 -8 22 -6 32 7 8 10 11 22 8 26 -9 15 -44 10 -44 -6z"/>
<path d="M1632 1521 c-37 -7 -38 -11 -21 -63 12 -38 13 -38 66 -38 39 0 53 4
53 14 0 8 -4 18 -10 21 -5 3 -10 16 -9 28 0 21 1 21 11 -3 l11 -25 5 23 c8 46
-23 59 -106 43z"/>
<path d="M1930 1502 c-8 -10 -14 -26 -12 -36 3 -15 7 -13 23 13 10 17 19 34
19 36 0 10 -15 3 -30 -13z"/>
<path d="M862 1492 c-20 -13 -29 -13 -56 -4 -40 15 -46 15 -46 2 0 -5 8 -10
19 -10 10 0 31 -10 46 -22 25 -19 28 -20 37 -5 12 22 55 22 66 0 14 -27 -2
-57 -34 -64 -26 -6 -24 -7 12 -8 37 -1 43 2 48 25 4 15 2 32 -3 37 -17 17 -13
34 9 40 36 9 21 22 -28 24 -29 1 -56 -5 -70 -15z"/>
<path d="M1030 1476 c8 -8 26 -17 40 -19 53 -10 80 -20 80 -28 0 -15 -32 -10
-52 8 -10 9 -18 11 -18 5 0 -16 41 -42 66 -42 12 0 33 9 47 20 14 11 35 20 46
20 12 0 21 5 21 10 0 6 -12 10 -27 10 -22 0 -25 2 -13 10 8 5 10 10 4 10 -6 0
-17 -7 -24 -15 -16 -20 -28 -19 -76 4 -33 16 -40 17 -42 5 -2 -10 -8 -12 -15
-6 -7 5 -21 12 -32 16 -18 6 -18 5 -5 -8z"/>
<path d="M1810 1471 c-22 -42 -4 -55 29 -22 14 14 16 22 8 30 -16 16 -25 14
-37 -8z"/>
<path d="M967 1453 c-4 -6 3 -19 14 -29 17 -15 22 -16 29 -4 5 8 6 19 3 24 -4
6 -8 5 -11 -3 -3 -8 -8 -7 -16 5 -8 10 -15 13 -19 7z"/>
<path d="M1421 1443 c-11 -4 -8 -10 10 -24 l24 -18 -43 1 c-24 0 -46 -2 -49
-6 -4 -3 9 -6 28 -6 39 0 79 -19 44 -21 -16 0 -14 -3 8 -11 16 -5 30 -8 32 -6
5 5 -28 98 -35 97 -3 0 -11 -3 -19 -6z"/>
<path d="M1307 1433 c-14 -13 -7 -42 16 -66 l22 -24 35 19 35 19 -37 -6 c-33
-5 -38 -3 -52 25 l-15 31 37 -5 c30 -5 32 -4 12 3 -32 12 -45 13 -53 4z"/>
<path d="M1760 1409 c0 -5 -5 -7 -11 -3 -7 4 -10 1 -7 -7 3 -8 1 -22 -4 -31
-11 -22 -9 -22 30 -2 27 13 30 18 22 35 -11 20 -30 26 -30 8z"/>
<path d="M1908 1383 c-8 -16 -22 -41 -32 -58 l-18 -30 20 23 c11 12 23 28 26
35 5 9 7 9 12 0 8 -18 34 -16 34 2 0 8 -6 15 -14 15 -9 0 -12 7 -9 20 8 29 -3
25 -19 -7z"/>
<path d="M1703 1383 c-15 -5 -17 -29 -4 -37 4 -3 13 6 19 19 11 25 9 28 -15
18z"/>
<path d="M2065 1373 c-44 -6 -56 -23 -17 -23 18 0 49 -7 70 -15 32 -13 34 -13
18 0 -10 8 -24 16 -30 19 -7 3 -6 8 4 15 17 12 14 12 -45 4z"/>
<path d="M2420 1369 c10 -7 11 -12 4 -15 -6 -3 -20 -11 -30 -19 -16 -13 -14
-13 18 0 21 8 52 15 70 15 45 0 23 16 -32 24 -34 5 -41 4 -30 -5z"/>
<path d="M1510 1358 c0 -7 4 -18 8 -23 12 -17 61 -35 77 -29 10 4 15 0 15 -10
0 -12 9 -16 34 -16 19 0 37 -4 41 -9 3 -6 -9 -7 -30 -4 -22 4 -35 2 -35 -5 0
-7 22 -11 60 -11 33 1 60 3 60 5 0 11 -69 37 -91 35 -19 -2 -29 5 -39 26 -7
15 -13 31 -12 34 0 3 -10 4 -22 2 -13 -3 -33 0 -45 6 -16 9 -21 9 -21 -1z"/>
<path d="M1790 1341 c-30 -14 -58 -30 -61 -35 -4 -4 -8 -3 -10 3 -3 6 -9 7
-18 2 -11 -7 -6 -13 19 -26 18 -9 29 -12 26 -6 -5 7 3 11 21 11 32 0 68 22 83
50 16 29 0 30 -60 1z"/>
<path d="M1321 1320 c-19 -9 -38 -27 -42 -38 -6 -15 -14 -20 -26 -16 -14 5
-15 4 -4 -4 20 -14 41 -4 52 25 7 18 13 22 25 15 9 -5 28 -7 42 -4 24 5 25 6
7 14 -17 7 -16 8 6 5 16 -2 26 1 26 10 0 18 -44 15 -86 -7z"/>
<path d="M1180 1241 c0 -49 -4 -101 -10 -116 -7 -17 -7 -24 0 -20 6 3 10 14
10 23 1 15 3 14 16 -3 16 -20 16 -20 11 0 -3 11 -7 62 -9 112 -2 51 -6 93 -10
93 -5 0 -8 -40 -8 -89z"/>
<path d="M1415 1295 c-33 -10 -36 -12 -18 -17 12 -3 30 0 40 7 15 11 21 11 36
-2 20 -19 22 -49 4 -56 -7 -3 -26 -3 -43 0 -28 5 -28 5 -9 -11 49 -39 131 5
94 51 -26 31 -62 40 -104 28z"/>
<path d="M1826 1264 c-28 -25 -30 -48 -1 -24 19 16 19 1 0 -27 -13 -19 -19
-20 -45 -11 -17 5 -30 13 -30 17 0 4 -7 8 -15 8 -8 0 -12 -4 -9 -9 7 -11 -49
-10 -81 2 -17 7 -24 7 -20 0 11 -18 -22 -10 -49 11 -22 17 -30 19 -39 9 -10
-10 -8 -12 8 -6 19 6 19 5 2 -8 -17 -13 -16 -15 12 -29 27 -13 30 -13 33 1 3
14 7 12 25 -8 13 -13 26 -20 30 -16 4 4 1 11 -7 16 -11 7 -1 10 33 10 37 0 47
-4 47 -16 0 -10 -6 -14 -15 -10 -9 3 -15 0 -15 -9 0 -12 5 -12 25 -3 14 6 25
15 25 20 0 11 43 -1 51 -15 4 -6 13 -5 25 2 11 6 15 11 9 11 -5 0 5 13 23 29
17 17 32 35 32 40 0 6 5 11 10 11 6 0 10 5 10 11 0 16 -35 6 -36 -11 -3 -32
-5 -34 -13 -21 -6 9 -6 22 0 33 13 23 10 22 -25 -8z"/>
<path d="M2247 1190 c15 -84 19 -86 29 -27 9 48 8 55 -4 45 -10 -9 -16 -8 -23
3 -6 9 -7 2 -2 -21z"/>
<path d="M1576 1154 c-4 -11 -15 -15 -35 -12 -23 3 -27 1 -23 -14 2 -10 10
-18 18 -18 17 0 65 48 54 55 -4 3 -11 -2 -14 -11z"/>
<path d="M1633 1143 c-20 -8 -15 -33 6 -33 14 0 18 5 14 20 -3 11 -6 20 -7 19
0 0 -7 -3 -13 -6z"/>
<path d="M980 1011 l-55 -6 60 -8 c33 -5 69 -10 80 -13 19 -5 19 -4 1 7 -15 9
-16 13 -5 20 16 10 10 10 -81 0z"/>
<path d="M1312 1012 c2 -6 -6 -18 -17 -27 -11 -9 -14 -13 -7 -10 8 4 50 13 95
20 82 13 82 13 27 14 -30 1 -65 4 -78 7 -14 4 -22 2 -20 -4z"/>
<path d="M1198 885 c-9 -19 -14 -22 -21 -13 -6 9 -7 8 -3 -5 3 -10 6 -51 7
-90 1 -90 17 -62 18 31 1 35 6 72 11 83 6 10 8 19 5 19 -3 0 -11 -11 -17 -25z"/>
</g>
</svg>
